# This file uses centimeters as units for non-parametric coordinates.

v 805.102905 -17.979239 -12.713241
v 792.389648 -17.979239 -17.979237
v 779.676392 -17.979239 -12.713241
v 774.410400 -17.979239 0.000000
v 779.676392 -17.979239 12.713241
v 792.389648 -17.979239 17.979237
v 805.102905 -17.979239 12.713242
v 810.368896 -17.979239 0.000000
v 805.102905 17.979239 -12.713241
v 792.389648 17.979239 -17.979237
v 779.676392 17.979239 -12.713241
v 774.410400 17.979239 0.000000
v 779.676392 17.979239 12.713241
v 792.389648 17.979239 17.979237
v 805.102905 17.979239 12.713242
v 810.368896 17.979239 0.000000
v 805.102905 17.979239 -12.713241
v 792.389648 17.979239 -17.979237
v 779.676392 17.979239 -12.713241
v 774.410400 17.979239 0.000000
v 779.676392 17.979239 12.713241
v 792.389648 17.979239 17.979237
v 805.102905 17.979239 12.713242
v 810.368896 17.979239 0.000000
vt 0.510303 0.687078
vt 0.510294 0.481475
vt 0.982952 0.481475
vt 0.982962 0.687078
vt 0.510284 0.275872
vt 0.982943 0.275872
vt 0.510274 0.070269
vt 0.493525 0.892534
vt 0.022836 0.688815
vt 0.493223 0.687919
vt 0.022534 0.484200
vt 0.492922 0.483304
vt 0.022233 0.279585
vt 0.492620 0.278689
vt 0.021931 0.074970
vt 0.982972 0.892682
vt 0.510313 0.892682
vt 0.492318 0.074074
vt 0.023138 0.893430
vt 0.982933 0.070269
vn 0.382683 0.000000 -0.923880
vn 0.382683 0.000000 -0.923880
vn 0.382683 0.000000 -0.923880
vn 0.382683 0.000000 -0.923880
vn -0.382683 0.000000 -0.923880
vn -0.382683 0.000000 -0.923880
vn -0.382683 0.000000 -0.923880
vn -0.382683 0.000000 -0.923880
vn -0.923880 0.000000 -0.382683
vn -0.923880 0.000000 -0.382683
vn -0.923880 0.000000 -0.382683
vn -0.923880 0.000000 -0.382683
vn -0.923880 0.000000 0.382683
vn -0.923880 0.000000 0.382683
vn -0.923880 0.000000 0.382683
vn -0.923880 0.000000 0.382683
vn -0.382683 0.000000 0.923880
vn -0.382683 0.000000 0.923880
vn -0.382683 0.000000 0.923880
vn -0.382683 0.000000 0.923880
vn 0.382683 0.000000 0.923880
vn 0.382683 0.000000 0.923880
vn 0.382683 0.000000 0.923880
vn 0.382683 0.000000 0.923880
vn 0.923880 0.000000 0.382683
vn 0.923880 0.000000 0.382683
vn 0.923880 0.000000 0.382683
vn 0.923880 0.000000 0.382683
vn 0.923880 0.000000 -0.382683
vn 0.923880 0.000000 -0.382683
vn 0.923880 0.000000 -0.382683
vn 0.923880 0.000000 -0.382683
vn 0.000000 0.000000 0.000000
vn 0.000000 0.000000 0.000000
vn 0.000000 0.000000 0.000000
vn 0.000000 0.000000 0.000000
vn 0.000000 0.000000 0.000000
vn 0.000000 0.000000 0.000000
vn 0.000000 0.000000 0.000000
vn 0.000000 0.000000 0.000000
vn 0.000000 0.000000 0.000000
vn 0.000000 0.000000 0.000000
vn 0.000000 0.000000 0.000000
vn 0.000000 0.000000 0.000000
vn 0.000000 0.000000 0.000000
vn 0.000000 0.000000 0.000000
vn 0.000000 0.000000 0.000000
vn 0.000000 0.000000 0.000000
vn 0.000000 0.000000 0.000000
vn 0.000000 0.000000 0.000000
vn 0.000000 0.000000 0.000000
vn 0.000000 0.000000 0.000000
vn 0.000000 0.000000 0.000000
vn 0.000000 0.000000 0.000000
vn 0.000000 0.000000 0.000000
vn 0.000000 0.000000 0.000000
vn 0.000000 0.000000 0.000000
vn 0.000000 0.000000 0.000000
vn 0.000000 0.000000 0.000000
vn 0.000000 0.000000 0.000000
vn 0.000000 0.000000 0.000000
vn 0.000000 0.000000 0.000000
vn 0.000000 0.000000 0.000000
vn 0.000000 0.000000 0.000000
s off
f 1/1/1 2/2/2 10/3/3 9/4/4
f 2/2/5 3/5/6 11/6/7 10/3/8
f 3/5/9 4/7/10 12/20/11 11/6/12
f 4/19/13 5/9/14 13/10/15 12/8/16
f 5/9/17 6/11/18 14/12/19 13/10/20
f 6/11/21 7/13/22 15/14/23 14/12/24
f 7/13/25 8/15/26 16/18/27 15/14/28
f 8/17/29 1/1/30 9/4/31 16/16/32
f 9//33 10//34 18//35 17//36
f 10//37 11//38 19//39 18//40
f 11//41 12//42 20//43 19//44
f 12//45 13//46 21//47 20//48
f 13//49 14//50 22//51 21//52
f 14//53 15//54 23//55 22//56
f 15//57 16//58 24//59 23//60
f 16//61 9//62 17//63 24//64
